# xmcd
#
# Track frame offsets:
#	150
#	12954
#	25684
#	37641
#	49271
#	62470
#	76489
#	92143
#	104196
#	130648
#	146078
#	160418
#	174800
#	197170
#	211296
#	225910
#	240284
#	253734
#	268721
#	289943
#	308312
#
# Disc length: 4333 seconds
#
# Revision: 3
# Processed by: cddbd v1.5.2PL0 Copyright (c) Steve Scherf et al.
# Submitted via: audiograbber 1.83.01
#
DISCID=1010eb15
DTITLE=Various Artist - Kolsche Weihnacht 12
DYEAR=2008
DGENRE=Xmas
TTITLE0=Marita Köllner - Schöne Winterzeit
TTITLE1=De Bläck Fööss - Weihnacht ist bald
TTITLE2=Die 3 Colonias - Zint Mätes 
TTITLE3=Chor d. HS Gr. Griechenmarkt - Janz ejal
TTITLE4=De Paveier  - Wenn et Chresskind op uns Ääd kütt
TTITLE5=De Wanderer - Op dem Weihnachtsmaat en Kölle
TTITLE6=Hans Hachenberg - Met de Johre
TTITLE7=De Höhner - Wann weed dat sin
TTITLE8=Erzählung:Gerd Köster - Erna, d'r Baum nadelt
TTITLE9=Köster and Hecker - Stäänklore Naach
TTITLE10=De Räuber - Frohe Weihnacht un e jlöcklich Neujohr
TTITLE11=Chor d. Ursulinen-Realschule - Schneemann
TTITLE12=Fuhrmann and Kulik - Öcher Print
TTITLE13=De Bläck Fööss - D'r Weihnachtsmann
TTITLE14=Hans Knipp - Liebe määt dä Daach jet heller
TTITLE15=De Paveier - Fröhliche Weihnacht
TTITLE16=Willibert Pauels  - Loss uns net em Rään he stonn
TTITLE17=St. Josef Sänger - Herrjott dobovven
TTITLE18=Die 3 Colonias - Dat Kaatespill
TTITLE19=Kölner Jugendchor St. Stephan - O Holy Night, do sin jo su vill Engel 
TTITLE20=De Höhner - Et ahle Johr es fott
EXTD=
EXTT0=
EXTT1=
EXTT2=
EXTT3=
EXTT4=
EXTT5=
EXTT6=
EXTT7=
EXTT8=
EXTT9=
EXTT10=
EXTT11=
EXTT12=
EXTT13=
EXTT14=
EXTT15=
EXTT16=
EXTT17=
EXTT18=
EXTT19=
EXTT20=
PLAYORDER=
